<svg viewBox="0 0 281.75 130.45" version="1.1" xmlns="http://www.w3.org/2000/svg" data-name="Layer 1" id="Layer_1">
  <defs>
    <style>
      .cls-1 {
        fill: #291051;
      }

      .cls-1, .cls-2 {
        stroke-width: 0px;
      }

      .cls-2 {
        fill: #8839e5;
      }
    </style>
  </defs>
  <g>
    <path d="M193.47,72.38c-.5-6.2-5.58-11.17-11.79-11.56-7.64-.48-13.93,5.82-13.45,13.46.4,6.23,5.41,11.31,11.63,11.79,5.18.4,9.75-2.31,12.06-6.46.26-.46-.08-1.02-.61-1.02h-6.55c-.13,0-.27.05-.38.12-1,.68-2.22,1.07-3.52,1.07-2.1,0-3.97-1.03-5.12-2.62-.16-.22,0-.55.28-.55h16.55c.32,0,.61-.22.68-.53.25-1.18.33-2.43.22-3.7ZM186.53,71.87h-11.33c-.24,0-.41-.24-.33-.47.86-2.49,3.22-4.28,5.99-4.28s5.14,1.79,5.99,4.28c.08.23-.08.47-.32.47Z" class="cls-1"></path>
    <path d="M249.37,60.75c.51,0,.84.53.62.99l-8.67,18.01-3.51,7.3-2.4,4.99c-.12.24-.36.39-.62.39h-5.49c-.51,0-.84-.53-.62-.99l5.55-11.54c.05-.09.05-.21,0-.3l-8.59-17.86c-.22-.46.11-.99.62-.99h5.49c.27,0,.51.15.62.39l5.13,10.67c.13.26.5.26.62,0l5.13-10.67c.12-.24.36-.39.62-.39h5.49Z" class="cls-1"></path>
    <path d="M152.36,72.63c-.4-6.3-5.51-11.41-11.81-11.81-7.64-.48-13.94,5.81-13.45,13.45.4,6.3,5.51,11.41,11.81,11.81,7.64.49,13.93-5.81,13.45-13.45ZM146.01,74.28c-.36,2.81-2.64,5.09-5.46,5.45-4.14.52-7.62-2.96-7.1-7.1.36-2.82,2.64-5.1,5.45-5.46,4.14-.52,7.63,2.97,7.11,7.11Z" class="cls-1"></path>
    <rect ry="3.16" rx="3.16" height="31.69" width="6.33" y="54.42" x="158.71" class="cls-2"></rect>
    <path d="M123.88,72.63c-.4-6.3-5.51-11.41-11.81-11.81-7.64-.48-13.93,5.81-13.45,13.46.4,6.3,5.51,11.4,11.81,11.8,2.4.16,4.67-.37,6.64-1.39.23-.12.51.05.51.31v1.11c0,.27-.02.55-.05.82-.04.28-.09.55-.16.81-.65,2.44-2.75,4.32-5.3,4.65-2.01.25-3.87-.45-5.19-1.71-.17-.16-.41-.21-.64-.16l-5.25,1.32c-.46.11-.68.64-.42,1.03,2.11,3.32,5.73,5.61,9.86,5.87,7.36.47,13.48-5.37,13.48-12.63v-12.69c0-.26,0-.53-.03-.79ZM117.58,73.45c0,.27-.02.55-.05.83-.36,2.81-2.64,5.1-5.46,5.45-4.14.52-7.62-2.96-7.1-7.1.36-2.82,2.64-5.1,5.46-5.46,3.85-.48,7.13,2.5,7.15,6.25v.03Z" class="cls-1"></path>
    <path d="M213.43,73.61l7.82,11.4c.31.46-.01,1.08-.57,1.08h-6.23c-.23,0-.44-.11-.57-.3l-4.26-6.2c-.14-.2-.43-.2-.57,0l-4.25,6.2c-.13.19-.34.3-.57.3h-6.23c-.56,0-.89-.62-.57-1.08l7.83-11.4c.08-.12.08-.27,0-.39l-7.83-11.4c-.32-.46.01-1.08.57-1.08h6.23c.23,0,.44.11.57.3l4.25,6.2c.14.2.43.2.57,0l4.26-6.2c.13-.19.34-.3.57-.3h6.23c.56,0,.89.62.57,1.08l-7.82,11.4c-.08.12-.08.27,0,.39Z" class="cls-1"></path>
  </g>
  <g>
    <path d="M68.79,92.32c-7.61-.48-14.22-4.89-17.81-11.21-.3-.52-.1-1.17.44-1.44l8.05-4c.48-.24,1.06-.06,1.35.4,2.17,3.52,6.27,5.73,10.84,5.16,2.79-.36,5.27-1.78,7.01-3.84.17-.21.06-.52-.2-.57-2.14-.37-4.08-1.72-5.12-3.81-.27-.55-.4-1.12-.4-1.69,0-1.4.78-2.74,2.11-3.4l5.82-2.9,3.42-1.7c.17-.08.33-.15.49-.21,3.3-1.22,6.96.95,7.38,4.55.05.38.09.77.11,1.16.85,13.35-10.15,24.35-23.49,23.5Z" class="cls-1"></path>
    <g>
      <path d="M90.98,56.74l-11.02,5.59c-1.81.92-3.83-.83-3.17-2.76l4.02-11.68c.34-1,1.52-1.42,2.42-.87h0c.6.37.9,1.08.75,1.77l-.34,1.52c-1.34,5.95,4.33,3.8,6.01,3.41.83-.19,1.41-.05,1.85.49h0c.67.82.41,2.04-.53,2.52Z" class="cls-2"></path>
      <path d="M64.73,45.37l.61.97c5.25,8.32,8.97-10.02,11.49-13.71.28-.41.86-.94,1.5-.83h0c.82.14,1.33.98,1.07,1.77l-7.9,24.12c-.65,1.97-3.37,2.16-4.28.29l-5.36-11c-.46-.95.07-2.08,1.1-2.33h0c.69-.16,1.4.13,1.78.72Z" class="cls-2"></path>
      <path d="M48.69,56.56l1.08.24c9.55,2.16-.63-13.44-1.54-17.81-.15-.73-.06-1.28.47-1.65h0c.68-.48,1.63-.25,2.01.5l11.45,22.6c.95,1.87-.86,3.94-2.84,3.26l-11.53-3.97c-1-.34-1.42-1.52-.87-2.42h0c.37-.6,1.08-.9,1.77-.75Z" class="cls-2"></path>
      <path d="M45.26,75.81l.97-.61c8.32-5.25-9.77-9.39-13.71-11.49-.51-.27-.94-.86-.83-1.5h0c.14-.82.98-1.33,1.77-1.07l24.12,7.9c1.97.65,2.16,3.37.29,4.28l-11,5.36c-.95.46-2.08-.07-2.33-1.1h0c-.16-.69.13-1.4.72-1.78Z" class="cls-2"></path>
    </g>
  </g>
</svg>