<?xml version="1.0" encoding="UTF-8" standalone="no"?>
<!DOCTYPE svg PUBLIC "-//W3C//DTD SVG 1.1//EN" "http://www.w3.org/Graphics/SVG/1.1/DTD/svg11.dtd">
<svg width="100%" height="100%" viewBox="0 0 1642 908" version="1.1" xmlns="http://www.w3.org/2000/svg" xmlns:xlink="http://www.w3.org/1999/xlink" xml:space="preserve" xmlns:serif="http://www.serif.com/" style="fill-rule:evenodd;clip-rule:evenodd;stroke-linejoin:round;stroke-miterlimit:2;">
    <g transform="matrix(1,0,0,1,-287.3875,-87.916667)">
        <g transform="matrix(4.166667,0,0,4.166667,0,0)">
            <g transform="matrix(291.86673,0,0,-291.86673,120.066635,207.269424)">
                <path d="M0.743,0.108L0.722,0.065L0.727,0.065L0.76,0.089L0.794,0.065L0.798,0.065L0.778,0.108L0.743,0.108ZM0.259,0.107L0.244,0.068L0.248,0.068L0.301,0.107L0.259,0.107ZM0.604,0.099L0.604,0.095C0.611,0.093 0.616,0.091 0.618,0.088C0.62,0.086 0.621,0.082 0.621,0.076L0.621,-0.012C0.621,-0.019 0.62,-0.025 0.618,-0.028C0.615,-0.031 0.611,-0.033 0.604,-0.034L0.604,-0.038L0.668,-0.038L0.668,-0.034C0.662,-0.033 0.658,-0.031 0.655,-0.028C0.653,-0.025 0.651,-0.021 0.651,-0.015L0.651,0.027L0.673,0.027C0.679,0.027 0.684,0.026 0.687,0.023C0.691,0.021 0.693,0.016 0.694,0.01L0.698,0.01L0.698,0.053L0.694,0.053C0.692,0.046 0.69,0.041 0.687,0.039C0.683,0.036 0.679,0.035 0.673,0.035L0.651,0.035L0.651,0.091L0.675,0.091C0.681,0.091 0.687,0.09 0.69,0.087C0.694,0.084 0.697,0.08 0.7,0.073L0.704,0.073L0.701,0.099L0.604,0.099ZM0.139,0.099L0.103,0.009L0.067,0.099L0.018,0.099L0.018,0.095C0.025,0.095 0.032,0.091 0.038,0.085L0.024,-0.004C0.023,-0.014 0.02,-0.022 0.016,-0.026C0.013,-0.031 0.007,-0.033 -0,-0.034L-0,-0.038L0.049,-0.038L0.049,-0.034C0.038,-0.033 0.033,-0.026 0.033,-0.015C0.033,-0.012 0.033,-0.009 0.033,-0.006L0.045,0.074L0.09,-0.038L0.094,-0.038L0.139,0.074L0.15,-0.004C0.151,-0.008 0.151,-0.011 0.151,-0.014C0.151,-0.02 0.15,-0.024 0.148,-0.027C0.145,-0.03 0.141,-0.032 0.136,-0.034L0.136,-0.038L0.203,-0.038L0.203,-0.034C0.197,-0.032 0.192,-0.03 0.188,-0.027C0.185,-0.023 0.183,-0.019 0.182,-0.012L0.17,0.073C0.169,0.075 0.169,0.077 0.169,0.079C0.169,0.083 0.171,0.087 0.173,0.09C0.176,0.092 0.18,0.094 0.185,0.095L0.185,0.099L0.139,0.099ZM0.858,0.084C0.845,0.067 0.832,0.055 0.82,0.048L0.82,0.043L0.836,0.043L0.836,-0.013C0.836,-0.022 0.839,-0.029 0.844,-0.034C0.849,-0.039 0.857,-0.041 0.866,-0.041C0.879,-0.041 0.888,-0.036 0.894,-0.026L0.892,-0.023C0.888,-0.028 0.883,-0.03 0.879,-0.03C0.873,-0.03 0.869,-0.028 0.866,-0.025C0.864,-0.021 0.863,-0.015 0.863,-0.007L0.863,0.043L0.892,0.043L0.892,0.05L0.863,0.05L0.863,0.084L0.858,0.084ZM0.919,0.04C0.91,0.031 0.905,0.019 0.905,0.006C0.905,-0.008 0.909,-0.019 0.919,-0.028C0.928,-0.037 0.939,-0.041 0.953,-0.041C0.964,-0.041 0.973,-0.038 0.981,-0.033C0.99,-0.028 0.996,-0.02 1,-0.011L0.996,-0.011C0.988,-0.023 0.977,-0.03 0.965,-0.03C0.956,-0.03 0.948,-0.026 0.942,-0.019C0.936,-0.011 0.933,-0.001 0.933,0.011C0.933,0.012 0.933,0.013 0.933,0.014L1,0.014C0.998,0.026 0.993,0.036 0.985,0.043C0.977,0.05 0.966,0.054 0.954,0.054C0.94,0.054 0.928,0.049 0.919,0.04ZM0.939,0.04C0.942,0.045 0.947,0.048 0.952,0.048C0.957,0.048 0.962,0.045 0.965,0.04C0.969,0.035 0.971,0.028 0.972,0.02L0.933,0.02C0.934,0.028 0.936,0.035 0.939,0.04ZM0.729,0.04C0.72,0.031 0.715,0.019 0.715,0.006C0.715,-0.008 0.72,-0.019 0.729,-0.028C0.738,-0.037 0.749,-0.041 0.763,-0.041C0.774,-0.041 0.783,-0.038 0.792,-0.033C0.8,-0.028 0.806,-0.02 0.81,-0.011L0.806,-0.011C0.798,-0.023 0.787,-0.03 0.775,-0.03C0.766,-0.03 0.758,-0.026 0.752,-0.019C0.746,-0.011 0.744,-0.001 0.744,0.011C0.744,0.012 0.744,0.013 0.744,0.014L0.81,0.014C0.809,0.026 0.804,0.036 0.795,0.043C0.787,0.05 0.777,0.054 0.764,0.054C0.75,0.054 0.739,0.049 0.729,0.04ZM0.749,0.04C0.752,0.045 0.757,0.048 0.762,0.048C0.767,0.048 0.772,0.045 0.776,0.04C0.779,0.035 0.781,0.028 0.782,0.02L0.744,0.02C0.744,0.028 0.746,0.035 0.749,0.04ZM0.458,0.046C0.451,0.041 0.446,0.033 0.444,0.024L0.447,0.024C0.453,0.034 0.462,0.039 0.474,0.039C0.482,0.039 0.487,0.037 0.491,0.033C0.494,0.03 0.496,0.024 0.496,0.016C0.492,0.014 0.487,0.013 0.479,0.011C0.463,0.006 0.452,0.002 0.447,-0.002C0.442,-0.006 0.439,-0.012 0.439,-0.018C0.439,-0.024 0.442,-0.03 0.447,-0.034C0.452,-0.039 0.458,-0.041 0.466,-0.041C0.476,-0.041 0.486,-0.038 0.494,-0.031L0.496,-0.029C0.498,-0.033 0.501,-0.036 0.504,-0.038C0.507,-0.04 0.511,-0.041 0.517,-0.041C0.523,-0.041 0.528,-0.04 0.532,-0.037C0.536,-0.034 0.538,-0.03 0.538,-0.024L0.535,-0.024C0.534,-0.03 0.531,-0.032 0.528,-0.032C0.524,-0.032 0.522,-0.028 0.522,-0.021L0.522,0.021C0.522,0.031 0.519,0.039 0.512,0.045C0.505,0.051 0.495,0.054 0.483,0.054C0.473,0.054 0.465,0.051 0.458,0.046ZM0.47,-0.027C0.468,-0.024 0.467,-0.02 0.467,-0.016C0.467,-0.01 0.469,-0.005 0.472,-0.002C0.476,0.002 0.484,0.006 0.496,0.011L0.496,-0.022C0.489,-0.029 0.484,-0.032 0.479,-0.032C0.475,-0.032 0.472,-0.03 0.47,-0.027ZM0.338,0.044C0.329,0.037 0.325,0.028 0.325,0.018C0.325,0.01 0.327,0.004 0.332,-0.001C0.337,-0.006 0.344,-0.01 0.354,-0.013L0.354,-0.014C0.343,-0.016 0.336,-0.019 0.332,-0.022C0.328,-0.025 0.326,-0.029 0.326,-0.033C0.326,-0.04 0.328,-0.045 0.333,-0.048C0.338,-0.051 0.346,-0.053 0.356,-0.054L0.356,-0.055C0.345,-0.056 0.336,-0.059 0.329,-0.064C0.322,-0.069 0.319,-0.075 0.319,-0.081C0.319,-0.089 0.324,-0.096 0.333,-0.101C0.342,-0.106 0.355,-0.108 0.369,-0.108C0.387,-0.108 0.401,-0.105 0.412,-0.097C0.423,-0.089 0.428,-0.08 0.428,-0.068C0.428,-0.063 0.426,-0.058 0.423,-0.053C0.419,-0.048 0.414,-0.044 0.407,-0.041C0.4,-0.038 0.388,-0.036 0.373,-0.035C0.362,-0.033 0.355,-0.032 0.351,-0.031C0.348,-0.03 0.347,-0.028 0.347,-0.025C0.347,-0.022 0.349,-0.02 0.353,-0.018C0.358,-0.017 0.365,-0.016 0.375,-0.016C0.388,-0.016 0.398,-0.013 0.406,-0.007C0.414,-0.001 0.418,0.007 0.418,0.016C0.418,0.025 0.414,0.032 0.406,0.039L0.406,0.039L0.428,0.037L0.428,0.053L0.383,0.053C0.383,0.053 0.372,0.054 0.369,0.054C0.357,0.054 0.346,0.05 0.338,0.044ZM0.357,-0.002C0.353,0.003 0.351,0.01 0.351,0.019C0.351,0.038 0.358,0.047 0.372,0.047C0.378,0.047 0.383,0.045 0.386,0.04C0.389,0.035 0.391,0.028 0.391,0.019C0.391,0.01 0.389,0.003 0.386,-0.002C0.382,-0.007 0.378,-0.01 0.371,-0.01C0.365,-0.01 0.36,-0.007 0.357,-0.002ZM0.356,-0.088C0.345,-0.084 0.34,-0.078 0.34,-0.071C0.34,-0.067 0.343,-0.064 0.347,-0.062C0.351,-0.059 0.357,-0.058 0.365,-0.058C0.378,-0.058 0.389,-0.06 0.399,-0.064C0.409,-0.067 0.413,-0.073 0.413,-0.079C0.413,-0.083 0.411,-0.087 0.407,-0.09C0.403,-0.092 0.397,-0.094 0.391,-0.094C0.378,-0.094 0.366,-0.092 0.356,-0.088ZM0.23,0.04C0.22,0.031 0.216,0.019 0.216,0.006C0.216,-0.008 0.22,-0.019 0.229,-0.028C0.239,-0.037 0.25,-0.041 0.264,-0.041C0.274,-0.041 0.284,-0.038 0.292,-0.033C0.301,-0.028 0.307,-0.02 0.311,-0.011L0.307,-0.011C0.298,-0.023 0.288,-0.03 0.275,-0.03C0.266,-0.03 0.259,-0.026 0.253,-0.019C0.247,-0.011 0.244,-0.001 0.244,0.011C0.244,0.012 0.244,0.013 0.244,0.014L0.311,0.014C0.309,0.026 0.304,0.036 0.296,0.043C0.288,0.05 0.277,0.054 0.265,0.054C0.251,0.054 0.239,0.049 0.23,0.04ZM0.25,0.04C0.253,0.045 0.257,0.048 0.263,0.048C0.268,0.048 0.273,0.045 0.276,0.04C0.28,0.035 0.282,0.028 0.282,0.02L0.244,0.02C0.244,0.028 0.246,0.035 0.25,0.04Z" style="fill:url(#_Linear1);fill-rule:nonzero;"/>
            </g>
        </g>
        <g transform="matrix(4.166667,0,0,4.166667,0,0)">
            <g transform="matrix(55.884606,142.964479,142.964479,-55.884606,117.780382,31.327331)">
                <path d="M0.525,0.382C0.659,0.295 0.797,0.252 0.951,0.326C0.763,0.293 0.618,0.353 0.525,0.527C0.404,0.206 0.272,-0.103 0.037,-0.356C0.286,-0.168 0.406,0.105 0.525,0.382Z" style="fill:url(#_Linear2);fill-rule:nonzero;"/>
            </g>
        </g>
        <g transform="matrix(4.166667,0,0,4.166667,0,0)">
            <g transform="matrix(153.512695,0,0,-153.512695,309.51416,102.723665)">
                <path d="M-0,0.168C0.13,0.016 0.13,-0.14 0.032,-0.302C0.157,-0.186 0.167,-0.041 0.135,0.115C0.22,0.119 0.3,0.121 0.38,0.127C0.534,0.138 0.686,0.161 0.831,0.216C0.888,0.238 0.944,0.268 1,0.294C0.999,0.296 0.998,0.299 0.997,0.302C0.677,0.174 0.342,0.164 -0,0.168Z" style="fill:url(#_Linear3);fill-rule:nonzero;"/>
            </g>
        </g>
        <g transform="matrix(4.166667,0,0,4.166667,0,0)">
            <g transform="matrix(96.677711,0,0,-96.677711,217.251694,45.714943)">
                <path d="M0.425,0.183C0.423,0.154 0.435,0.128 0.457,0.112C0.449,0.082 0.443,0.049 0.43,0.019C0.421,-0.003 0.409,-0.022 0.396,-0.037C0.37,-0.008 0.342,0.02 0.318,0.051C0.303,0.07 0.295,0.091 0.314,0.118C0.33,0.14 0.321,0.166 0.297,0.182C0.273,0.198 0.25,0.192 0.232,0.171C0.213,0.149 0.212,0.12 0.235,0.105C0.266,0.086 0.26,0.064 0.253,0.039C0.245,0.012 0.235,-0.015 0.226,-0.044C0.224,-0.042 0.221,-0.041 0.219,-0.039C0.177,-0.006 0.144,0.037 0.105,0.078C0.111,0.088 0.115,0.099 0.115,0.112C0.115,0.146 0.091,0.168 0.057,0.168C0.023,0.167 -0.001,0.143 0,0.11C0.001,0.079 0.027,0.054 0.059,0.054C0.06,0.054 0.061,0.054 0.062,0.054C0.105,-0.049 0.147,-0.151 0.189,-0.254C0.4,-0.136 0.609,-0.137 0.82,-0.255C0.862,-0.151 0.904,-0.049 0.946,0.054C0.977,0.055 1,0.08 1,0.112C1,0.146 0.976,0.168 0.942,0.168C0.909,0.167 0.884,0.143 0.885,0.11C0.885,0.099 0.889,0.088 0.895,0.079C0.885,0.064 0.876,0.049 0.865,0.036C0.841,0.005 0.815,-0.025 0.782,-0.045C0.772,-0.016 0.763,0.011 0.755,0.039C0.747,0.064 0.741,0.086 0.772,0.105C0.795,0.12 0.795,0.149 0.776,0.171C0.758,0.192 0.734,0.198 0.71,0.182C0.686,0.166 0.678,0.14 0.694,0.118C0.713,0.091 0.704,0.07 0.689,0.051C0.666,0.021 0.639,-0.007 0.613,-0.036C0.611,-0.034 0.609,-0.031 0.607,-0.029C0.589,-0.004 0.577,0.026 0.566,0.055C0.559,0.075 0.556,0.095 0.552,0.113C0.569,0.125 0.581,0.145 0.582,0.169C0.586,0.216 0.555,0.252 0.509,0.255C0.507,0.255 0.506,0.255 0.504,0.255C0.461,0.255 0.429,0.226 0.425,0.183ZM0.502,0.03C0.548,-0.018 0.549,-0.045 0.504,-0.109C0.46,-0.046 0.46,-0.034 0.502,0.03Z" style="fill:url(#_Linear4);fill-rule:nonzero;"/>
            </g>
        </g>
        <g transform="matrix(4.166667,0,0,4.166667,0,0)">
            <g transform="matrix(103.564224,0,0,-103.564224,214.356873,118.484281)">
                <path d="M0.505,0.501C0.225,0.501 0.001,0.279 0,0.002C-0.001,-0.275 0.22,-0.499 0.495,-0.501C0.496,-0.501 0.498,-0.501 0.499,-0.501C0.774,-0.501 1.001,-0.274 1,0.001C0.999,0.27 0.772,0.5 0.507,0.501L0.505,0.501ZM0.495,-0.47C0.464,-0.47 0.432,-0.467 0.401,-0.46C0.371,-0.454 0.342,-0.444 0.314,-0.432C0.286,-0.42 0.26,-0.406 0.235,-0.389C0.21,-0.372 0.187,-0.352 0.166,-0.331C0.145,-0.31 0.126,-0.286 0.109,-0.261C0.093,-0.236 0.078,-0.209 0.067,-0.181C0.055,-0.153 0.046,-0.123 0.04,-0.093C0.034,-0.062 0.031,-0.03 0.031,0.002C0.031,0.034 0.034,0.066 0.041,0.097C0.047,0.127 0.056,0.156 0.068,0.185C0.08,0.212 0.095,0.239 0.112,0.264C0.129,0.289 0.148,0.312 0.17,0.333C0.191,0.355 0.215,0.374 0.24,0.391C0.265,0.407 0.292,0.422 0.32,0.434C0.349,0.445 0.379,0.455 0.409,0.461C0.441,0.467 0.473,0.47 0.505,0.47L0.507,0.47C0.537,0.47 0.568,0.467 0.598,0.46C0.627,0.454 0.656,0.444 0.683,0.432C0.711,0.42 0.737,0.405 0.762,0.388C0.786,0.371 0.81,0.352 0.831,0.33C0.852,0.309 0.871,0.285 0.888,0.26C0.905,0.235 0.92,0.208 0.932,0.181C0.944,0.153 0.953,0.123 0.959,0.094C0.966,0.063 0.969,0.032 0.969,0.001C0.969,-0.03 0.966,-0.062 0.96,-0.093C0.954,-0.123 0.944,-0.153 0.932,-0.181C0.921,-0.209 0.906,-0.236 0.889,-0.261C0.872,-0.286 0.853,-0.31 0.831,-0.331C0.81,-0.353 0.787,-0.372 0.762,-0.389C0.736,-0.406 0.709,-0.421 0.681,-0.433C0.653,-0.445 0.623,-0.454 0.593,-0.461C0.562,-0.467 0.531,-0.47 0.499,-0.47C0.498,-0.47 0.496,-0.47 0.495,-0.47Z" style="fill:url(#_Linear5);fill-rule:nonzero;"/>
            </g>
        </g>
        <g transform="matrix(4.166667,0,0,4.166667,0,0)">
            <g transform="matrix(101.411644,0,0,-101.411644,345.305908,90.756756)">
                <path d="M0.509,0.04C0.338,0.014 0.164,0.003 0,-0.014C0.222,-0.091 0.804,0 1,0.14C0.846,0.108 0.679,0.066 0.509,0.04Z" style="fill:url(#_Linear6);fill-rule:nonzero;"/>
            </g>
        </g>
        <g transform="matrix(4.166667,0,0,4.166667,0,0)">
            <g transform="matrix(103.694344,0,0,-103.694344,84.019287,89.203982)">
                <path d="M1,-0.026C0.661,-0.012 0.327,0.034 -0,0.13C0.317,-0.03 0.649,-0.091 1,-0.026Z" style="fill:url(#_Linear7);fill-rule:nonzero;"/>
            </g>
        </g>
        <g transform="matrix(4.166667,0,0,4.166667,0,0)">
            <g transform="matrix(91.615524,0,0,-91.615524,343.052185,103.927194)">
                <path d="M0.52,0.048C0.352,0.032 0.181,0.044 -0,0.044C0.275,-0.08 0.772,-0.026 1,0.137C0.854,0.109 0.688,0.064 0.52,0.048Z" style="fill:url(#_Linear8);fill-rule:nonzero;"/>
            </g>
        </g>
        <g transform="matrix(4.166667,0,0,4.166667,0,0)">
            <g transform="matrix(91.3536,0,0,-91.3536,96.083084,104.028551)">
                <path d="M1,0.041C0.66,0.011 0.326,0.046 -0,0.15C0.32,-0.016 0.649,-0.087 1,0.041Z" style="fill:url(#_Linear9);fill-rule:nonzero;"/>
            </g>
        </g>
        <g transform="matrix(4.166667,0,0,4.166667,0,0)">
            <g transform="matrix(83.054748,0,0,-83.054748,105.013413,115.463086)">
                <path d="M1,0.058C0.848,0.05 0.68,0.036 0.511,0.033C0.339,0.031 0.174,0.079 -0,0.134C0.236,-0.052 0.744,-0.082 1,0.058Z" style="fill:url(#_Linear10);fill-rule:nonzero;"/>
            </g>
        </g>
        <g transform="matrix(4.166667,0,0,4.166667,0,0)">
            <g transform="matrix(83.118294,0,0,-83.118294,342.86142,115.685541)">
                <path d="M-0,0.071C0.282,-0.078 0.805,-0.047 1,0.133C0.673,0.011 0.339,0.014 -0,0.071Z" style="fill:url(#_Linear11);fill-rule:nonzero;"/>
            </g>
        </g>
        <g transform="matrix(4.166667,0,0,4.166667,0,0)">
            <g transform="matrix(75.578903,0,0,-75.578903,111.278801,129.069103)">
                <path d="M1,0.096C0.843,0.081 0.666,0.047 0.492,0.053C0.318,0.06 0.146,0.108 0,0.133C0.316,-0.041 0.663,-0.074 1,0.096Z" style="fill:url(#_Linear12);fill-rule:nonzero;"/>
            </g>
        </g>
        <g transform="matrix(4.166667,0,0,4.166667,0,0)">
            <g transform="matrix(77.324112,0,0,-77.324112,345.176361,128.530429)">
                <path d="M0.494,0.043C0.322,0.047 0.151,0.073 0,0.087C0.328,-0.08 0.667,-0.047 1,0.139C0.834,0.091 0.667,0.038 0.494,0.043Z" style="fill:url(#_Linear13);fill-rule:nonzero;"/>
            </g>
        </g>
        <g transform="matrix(4.166667,0,0,4.166667,0,0)">
            <g transform="matrix(61.059135,0,0,-61.059135,176.341171,150.520438)">
                <path d="M-0,0.278C0.051,0.274 0.134,0.262 0.228,0.227C0.394,0.166 0.479,0.079 0.676,-0.072C0.748,-0.126 0.858,-0.208 1,-0.3C0.868,-0.185 0.738,-0.068 0.603,0.044C0.518,0.115 0.431,0.184 0.337,0.241C0.272,0.282 0.197,0.3 0.126,0.3C0.082,0.3 0.038,0.293 -0,0.278Z" style="fill:url(#_Linear14);fill-rule:nonzero;"/>
            </g>
        </g>
        <g transform="matrix(4.166667,0,0,4.166667,0,0)">
            <g transform="matrix(33.385181,0,0,-33.385181,188.960648,155.763809)">
                <path d="M0.136,0.236C0.039,0.221 -0.008,0.145 0.001,0.044C0.009,-0.047 0.059,-0.114 0.149,-0.11C0.208,-0.108 0.269,-0.073 0.291,-0.018C0.309,0.026 0.298,0.073 0.292,0.074C0.285,0.074 0.288,0.029 0.256,-0.002C0.23,-0.028 0.179,-0.046 0.141,-0.023C0.094,0.006 0.095,0.085 0.127,0.122C0.149,0.146 0.186,0.152 0.233,0.148C0.405,0.134 0.516,0.008 0.686,-0.098C0.753,-0.139 0.856,-0.195 1,-0.24C0.7,-0.011 0.459,0.144 0.339,0.202C0.306,0.218 0.249,0.24 0.182,0.24C0.167,0.24 0.152,0.239 0.136,0.236Z" style="fill:url(#_Linear15);fill-rule:nonzero;"/>
            </g>
        </g>
        <g transform="matrix(4.166667,0,0,4.166667,0,0)">
            <g transform="matrix(61.059135,0,0,-61.059135,294.237518,150.520438)">
                <path d="M0.663,0.241C0.569,0.184 0.482,0.115 0.397,0.044C0.262,-0.068 0.132,-0.185 -0,-0.3C0.142,-0.208 0.252,-0.126 0.324,-0.072C0.521,0.079 0.606,0.166 0.772,0.227C0.866,0.262 0.949,0.274 1,0.278C0.962,0.293 0.918,0.3 0.874,0.3C0.803,0.3 0.728,0.282 0.663,0.241Z" style="fill:url(#_Linear16);fill-rule:nonzero;"/>
            </g>
        </g>
        <g transform="matrix(4.166667,0,0,4.166667,0,0)">
            <g transform="matrix(33.385181,0,0,-33.385181,309.292023,155.762809)">
                <path d="M0.661,0.202C0.541,0.144 0.3,-0.011 -0,-0.24C0.144,-0.195 0.247,-0.139 0.314,-0.098C0.484,0.008 0.595,0.134 0.767,0.148C0.814,0.152 0.851,0.146 0.873,0.121C0.905,0.085 0.906,0.006 0.859,-0.023C0.821,-0.046 0.77,-0.028 0.744,-0.002C0.712,0.029 0.715,0.074 0.708,0.074C0.702,0.073 0.691,0.026 0.709,-0.018C0.731,-0.073 0.792,-0.108 0.851,-0.11C0.941,-0.114 0.991,-0.047 0.999,0.044C1.008,0.145 0.961,0.221 0.864,0.236C0.848,0.239 0.833,0.24 0.818,0.24C0.751,0.24 0.694,0.218 0.661,0.202Z" style="fill:url(#_Linear17);fill-rule:nonzero;"/>
            </g>
        </g>
        <g transform="matrix(4.166667,0,0,4.166667,0,0)">
            <g transform="matrix(48.358021,0,0,-48.358021,219.647385,112.51277)">
                <path d="M0.685,0.336L0.507,-0.107L0.331,0.336L0.088,0.336L0.088,0.317C0.125,0.315 0.157,0.3 0.186,0.271L0.119,-0.168C0.111,-0.221 0.098,-0.259 0.08,-0.281C0.062,-0.303 0.036,-0.315 0,-0.316L0,-0.336L0.244,-0.336L0.244,-0.316C0.189,-0.312 0.161,-0.281 0.161,-0.222C0.161,-0.209 0.162,-0.195 0.164,-0.18L0.223,0.216L0.441,-0.336L0.465,-0.336L0.686,0.216L0.741,-0.168C0.744,-0.188 0.745,-0.205 0.745,-0.219C0.745,-0.247 0.739,-0.268 0.727,-0.283C0.715,-0.298 0.695,-0.309 0.668,-0.316L0.668,-0.336L1,-0.336L1,-0.316C0.969,-0.31 0.945,-0.299 0.928,-0.283C0.912,-0.266 0.902,-0.243 0.897,-0.212L0.836,0.208C0.835,0.218 0.834,0.228 0.834,0.237C0.834,0.26 0.841,0.278 0.853,0.29C0.865,0.303 0.885,0.312 0.912,0.317L0.912,0.336L0.685,0.336Z" style="fill:url(#_Linear18);fill-rule:nonzero;"/>
            </g>
        </g>
        <g transform="matrix(4.166667,0,0,4.166667,0,0)">
            <g transform="matrix(27.669483,0,0,-27.669483,275.127564,128.779734)">
                <path d="M-0,0.686L-0,0.646C0.07,0.627 0.116,0.605 0.138,0.581C0.161,0.556 0.172,0.516 0.172,0.46L0.172,-0.424C0.172,-0.502 0.16,-0.557 0.137,-0.586C0.113,-0.615 0.068,-0.635 -0,-0.646L-0,-0.686L0.644,-0.686L0.644,-0.646C0.58,-0.635 0.536,-0.616 0.512,-0.589C0.488,-0.561 0.475,-0.517 0.475,-0.456L0.475,-0.032L0.688,-0.032C0.754,-0.032 0.803,-0.045 0.836,-0.072C0.869,-0.098 0.891,-0.142 0.902,-0.204L0.942,-0.204L0.942,0.222L0.902,0.222C0.883,0.155 0.859,0.109 0.828,0.084C0.797,0.058 0.75,0.046 0.688,0.046L0.475,0.046L0.475,0.608L0.712,0.608C0.777,0.608 0.828,0.594 0.866,0.566C0.904,0.539 0.936,0.493 0.96,0.428L1,0.428L0.972,0.686L-0,0.686Z" style="fill:url(#_Linear19);fill-rule:nonzero;"/>
            </g>
        </g>
        <g transform="matrix(4.166667,0,0,4.166667,0,0)">
            <g transform="matrix(2.393108,0,0,-2.393108,270.369934,118.483296)">
                <rect x="0" y="-16.321" width="1" height="32.642" style="fill:url(#_Linear20);"/>
            </g>
        </g>
    </g>
    <defs>
        <linearGradient id="_Linear1" x1="0" y1="0" x2="1" y2="0" gradientUnits="userSpaceOnUse" gradientTransform="matrix(1,0,0,-1,0,-0.000004)"><stop offset="0" style="stop-color:rgb(129,93,56);stop-opacity:1"/><stop offset="0.51" style="stop-color:rgb(255,212,104);stop-opacity:1"/><stop offset="1" style="stop-color:rgb(157,109,58);stop-opacity:1"/></linearGradient>
        <linearGradient id="_Linear2" x1="0" y1="0" x2="1" y2="0" gradientUnits="userSpaceOnUse" gradientTransform="matrix(0.364072,0.931371,0.931371,-0.364072,0.317965,-0.465686)"><stop offset="0" style="stop-color:rgb(129,93,56);stop-opacity:1"/><stop offset="0.51" style="stop-color:rgb(255,212,104);stop-opacity:1"/><stop offset="1" style="stop-color:rgb(157,109,58);stop-opacity:1"/></linearGradient>
        <linearGradient id="_Linear3" x1="0" y1="0" x2="1" y2="0" gradientUnits="userSpaceOnUse" gradientTransform="matrix(1,0,0,-1,0,-0.000004)"><stop offset="0" style="stop-color:rgb(129,93,56);stop-opacity:1"/><stop offset="0.51" style="stop-color:rgb(255,212,104);stop-opacity:1"/><stop offset="1" style="stop-color:rgb(157,109,58);stop-opacity:1"/></linearGradient>
        <linearGradient id="_Linear4" x1="0" y1="0" x2="1" y2="0" gradientUnits="userSpaceOnUse" gradientTransform="matrix(1,0,0,-1,0,-0.000001)"><stop offset="0" style="stop-color:rgb(129,93,56);stop-opacity:1"/><stop offset="0.51" style="stop-color:rgb(255,212,104);stop-opacity:1"/><stop offset="1" style="stop-color:rgb(157,109,58);stop-opacity:1"/></linearGradient>
        <linearGradient id="_Linear5" x1="0" y1="0" x2="1" y2="0" gradientUnits="userSpaceOnUse" gradientTransform="matrix(1,0,0,-1,0,0.000005)"><stop offset="0" style="stop-color:rgb(129,93,56);stop-opacity:1"/><stop offset="0.51" style="stop-color:rgb(255,212,104);stop-opacity:1"/><stop offset="1" style="stop-color:rgb(157,109,58);stop-opacity:1"/></linearGradient>
        <linearGradient id="_Linear6" x1="0" y1="0" x2="1" y2="0" gradientUnits="userSpaceOnUse" gradientTransform="matrix(1,0,0,-1,0,0.048688)"><stop offset="0" style="stop-color:rgb(129,93,56);stop-opacity:1"/><stop offset="0.51" style="stop-color:rgb(255,212,104);stop-opacity:1"/><stop offset="1" style="stop-color:rgb(157,109,58);stop-opacity:1"/></linearGradient>
        <linearGradient id="_Linear7" x1="0" y1="0" x2="1" y2="0" gradientUnits="userSpaceOnUse" gradientTransform="matrix(1,0,0,-1,0,0.039375)"><stop offset="0" style="stop-color:rgb(129,93,56);stop-opacity:1"/><stop offset="0.51" style="stop-color:rgb(255,212,104);stop-opacity:1"/><stop offset="1" style="stop-color:rgb(157,109,58);stop-opacity:1"/></linearGradient>
        <linearGradient id="_Linear8" x1="0" y1="0" x2="1" y2="0" gradientUnits="userSpaceOnUse" gradientTransform="matrix(1,0,0,-1,0,0.056458)"><stop offset="0" style="stop-color:rgb(129,93,56);stop-opacity:1"/><stop offset="0.51" style="stop-color:rgb(255,212,104);stop-opacity:1"/><stop offset="1" style="stop-color:rgb(157,109,58);stop-opacity:1"/></linearGradient>
        <linearGradient id="_Linear9" x1="0" y1="0" x2="1" y2="0" gradientUnits="userSpaceOnUse" gradientTransform="matrix(1,0,0,-1,0,0.062462)"><stop offset="0" style="stop-color:rgb(129,93,56);stop-opacity:1"/><stop offset="0.51" style="stop-color:rgb(255,212,104);stop-opacity:1"/><stop offset="1" style="stop-color:rgb(157,109,58);stop-opacity:1"/></linearGradient>
        <linearGradient id="_Linear10" x1="0" y1="0" x2="1" y2="0" gradientUnits="userSpaceOnUse" gradientTransform="matrix(1,0,0,-1,0,0.052353)"><stop offset="0" style="stop-color:rgb(129,93,56);stop-opacity:1"/><stop offset="0.51" style="stop-color:rgb(255,212,104);stop-opacity:1"/><stop offset="1" style="stop-color:rgb(157,109,58);stop-opacity:1"/></linearGradient>
        <linearGradient id="_Linear11" x1="0" y1="0" x2="1" y2="0" gradientUnits="userSpaceOnUse" gradientTransform="matrix(1,0,0,-1,0,0.05455)"><stop offset="0" style="stop-color:rgb(129,93,56);stop-opacity:1"/><stop offset="0.51" style="stop-color:rgb(255,212,104);stop-opacity:1"/><stop offset="1" style="stop-color:rgb(157,109,58);stop-opacity:1"/></linearGradient>
        <linearGradient id="_Linear12" x1="0" y1="0" x2="1" y2="0" gradientUnits="userSpaceOnUse" gradientTransform="matrix(1,0,0,-1,0,0.058538)"><stop offset="0" style="stop-color:rgb(129,93,56);stop-opacity:1"/><stop offset="0.51" style="stop-color:rgb(255,212,104);stop-opacity:1"/><stop offset="1" style="stop-color:rgb(157,109,58);stop-opacity:1"/></linearGradient>
        <linearGradient id="_Linear13" x1="0" y1="0" x2="1" y2="0" gradientUnits="userSpaceOnUse" gradientTransform="matrix(1,0,0,-1,0,0.058906)"><stop offset="0" style="stop-color:rgb(129,93,56);stop-opacity:1"/><stop offset="0.51" style="stop-color:rgb(255,212,104);stop-opacity:1"/><stop offset="1" style="stop-color:rgb(157,109,58);stop-opacity:1"/></linearGradient>
        <linearGradient id="_Linear14" x1="0" y1="0" x2="1" y2="0" gradientUnits="userSpaceOnUse" gradientTransform="matrix(1,0,0,-1,0,0.000014)"><stop offset="0" style="stop-color:rgb(129,93,56);stop-opacity:1"/><stop offset="0.51" style="stop-color:rgb(255,212,104);stop-opacity:1"/><stop offset="1" style="stop-color:rgb(157,109,58);stop-opacity:1"/></linearGradient>
        <linearGradient id="_Linear15" x1="0" y1="0" x2="1" y2="0" gradientUnits="userSpaceOnUse" gradientTransform="matrix(1,0,0,-1,0,0.000018)"><stop offset="0" style="stop-color:rgb(129,93,56);stop-opacity:1"/><stop offset="0.51" style="stop-color:rgb(255,212,104);stop-opacity:1"/><stop offset="1" style="stop-color:rgb(157,109,58);stop-opacity:1"/></linearGradient>
        <linearGradient id="_Linear16" x1="0" y1="0" x2="1" y2="0" gradientUnits="userSpaceOnUse" gradientTransform="matrix(1,0,0,-1,0,0.000014)"><stop offset="0" style="stop-color:rgb(129,93,56);stop-opacity:1"/><stop offset="0.51" style="stop-color:rgb(255,212,104);stop-opacity:1"/><stop offset="1" style="stop-color:rgb(157,109,58);stop-opacity:1"/></linearGradient>
        <linearGradient id="_Linear17" x1="0" y1="0" x2="1" y2="0" gradientUnits="userSpaceOnUse" gradientTransform="matrix(1,0,0,-1,0,-0.000011)"><stop offset="0" style="stop-color:rgb(129,93,56);stop-opacity:1"/><stop offset="0.51" style="stop-color:rgb(255,212,104);stop-opacity:1"/><stop offset="1" style="stop-color:rgb(157,109,58);stop-opacity:1"/></linearGradient>
        <linearGradient id="_Linear18" x1="0" y1="0" x2="1" y2="0" gradientUnits="userSpaceOnUse" gradientTransform="matrix(1,0,0,-1,0,0.000032)"><stop offset="0" style="stop-color:rgb(129,93,56);stop-opacity:1"/><stop offset="0.51" style="stop-color:rgb(255,212,104);stop-opacity:1"/><stop offset="1" style="stop-color:rgb(157,109,58);stop-opacity:1"/></linearGradient>
        <linearGradient id="_Linear19" x1="0" y1="0" x2="1" y2="0" gradientUnits="userSpaceOnUse" gradientTransform="matrix(1,0,0,-1,0,0.000017)"><stop offset="0" style="stop-color:rgb(129,93,56);stop-opacity:1"/><stop offset="0.51" style="stop-color:rgb(255,212,104);stop-opacity:1"/><stop offset="1" style="stop-color:rgb(157,109,58);stop-opacity:1"/></linearGradient>
        <linearGradient id="_Linear20" x1="0" y1="0" x2="1" y2="0" gradientUnits="userSpaceOnUse" gradientTransform="matrix(1,0,0,-1,0,-0.00017)"><stop offset="0" style="stop-color:rgb(129,93,56);stop-opacity:1"/><stop offset="0.51" style="stop-color:rgb(255,212,104);stop-opacity:1"/><stop offset="1" style="stop-color:rgb(157,109,58);stop-opacity:1"/></linearGradient>
    </defs>
</svg>
