<?xml version="1.0" encoding="UTF-8"?>
<svg id="Layer_2" data-name="Layer 2" xmlns="http://www.w3.org/2000/svg" viewBox="0 0 807.16 156.14">
  <defs>
    <style>
      .cls-1 {
        fill: #004151;
      }

      .cls-1, .cls-2 {
        stroke-width: 0px;
      }

      .cls-2 {
        fill: #05f26c;
      }
    </style>
  </defs>
  <g id="Layer_1-2" data-name="Layer 1">
    <g>
      <g>
        <path class="cls-2" d="M23.89,151.22c-7.15-3.13-12.79-7.43-16.93-12.88-4.14-5.46-6.46-11.57-6.96-18.34h31.79c.38,3.64,2.07,6.58,5.08,8.84,3.01,2.26,6.71,3.39,11.1,3.39,4.01,0,7.11-.78,9.31-2.35,2.19-1.57,3.29-3.6,3.29-6.11,0-3.01-1.57-5.24-4.7-6.68-3.14-1.44-8.21-3.04-15.24-4.8-7.52-1.75-13.8-3.6-18.81-5.55-5.02-1.94-9.34-5.01-12.98-9.22-3.64-4.2-5.46-9.88-5.46-17.02,0-6.02,1.66-11.5,4.99-16.46,3.32-4.95,8.21-8.87,14.67-11.76,6.46-2.88,14.14-4.33,23.04-4.33,13.17,0,23.54,3.26,31.13,9.78,7.59,6.52,11.94,15.17,13.07,25.96h-29.72c-.5-3.64-2.1-6.52-4.8-8.65-2.7-2.13-6.24-3.2-10.63-3.2-3.76,0-6.65.72-8.65,2.16-2.01,1.44-3.01,3.42-3.01,5.93,0,3.01,1.6,5.27,4.8,6.77s8.18,3.01,14.95,4.52c7.77,2.01,14.11,3.98,19,5.92,4.89,1.95,9.18,5.08,12.89,9.4,3.7,4.33,5.61,10.13,5.74,17.4,0,6.15-1.72,11.63-5.17,16.46-3.45,4.83-8.4,8.62-14.86,11.38-6.46,2.76-13.95,4.14-22.48,4.14-9.16,0-17.31-1.57-24.45-4.7Z"/>
        <path class="cls-2" d="M315.23,73.44c-4.76-8.22-11.29-14.52-19.56-18.9-8.28-4.38-17.55-6.58-27.84-6.58h-109.1c-10.29,0-19.56,2.2-27.84,6.58-8.28,4.38-14.8,10.68-19.56,18.9-4.76,8.22-7.15,17.72-7.15,28.5s2.35,20.45,7.05,28.59c4.7,8.14,11.15,14.43,19.37,18.81,8.22,4.38,17.46,6.58,27.74,6.58h109.1c10.29,0,19.6-2.2,27.93-6.58,8.33-4.38,14.92-10.68,19.75-18.9,4.83-8.22,7.24-17.72,7.24-28.5s-2.39-20.28-7.15-28.5ZM283.16,121.31c-4.33,4.51-9.57,6.77-15.71,6.77h-109.1c-6.15,0-11.27-2.26-15.33-6.77-4.08-4.51-6.11-10.97-6.11-19.37s2.07-15.01,6.21-19.47,9.35-6.68,15.61-6.68h109.1c6.15,0,11.32,2.26,15.52,6.77,4.19,4.51,6.3,10.97,6.3,19.37s-2.16,14.86-6.49,19.37Z"/>
      </g>
      <g>
        <g>
          <path class="cls-1" d="M360.05,112.97c3.99,8.85,10.2,15.02,18.65,18.54,8.44,3.52,17.2,3.53,26.26.05l8.26,20.12c-7.11,2.83-14.21,4.24-21.31,4.24-11.02,0-21.26-3.06-30.72-9.19-9.46-6.13-16.54-14.63-21.26-25.5-5.65-14.35-5.62-28.67.11-42.95,6.09-14.14,16.2-24.25,30.34-30.34,6.74-2.61,13.08-3.95,19.03-4.02,5.94-.07,10.96.38,15.06,1.36,4.1.98,6.76,1.76,7.99,2.34l-7.94,20.22c-.29-.14-1.67-.54-4.13-1.2-2.46-.65-5.62-1-9.46-1.03-3.84-.04-7.9.78-12.18,2.45-8.7,3.7-14.9,9.89-18.59,18.59-3.55,8.77-3.59,17.54-.11,26.31Z"/>
          <path class="cls-1" d="M478.21,43.93c10.37,0,19.79,2.52,28.27,7.56,8.48,5.04,15.24,11.82,20.28,20.33,5.04,8.52,7.56,17.92,7.56,28.22s-2.52,19.7-7.56,28.22c-5.04,8.52-11.8,15.3-20.28,20.33-8.48,5.04-17.9,7.56-28.27,7.56s-19.68-2.52-28.16-7.56c-8.48-5.04-15.26-11.81-20.33-20.33-5.07-8.52-7.61-17.92-7.61-28.22s2.54-19.7,7.61-28.22c5.07-8.52,11.85-15.29,20.33-20.33,8.48-5.04,17.87-7.56,28.16-7.56ZM478.21,134.39c9.5,0,17.6-3.35,24.3-10.06,6.71-6.7,10.06-14.8,10.06-24.3s-3.35-17.6-10.06-24.3c-6.71-6.7-14.8-10.06-24.3-10.06s-17.51,3.35-24.25,10.06c-6.74,6.71-10.11,14.81-10.11,24.3s3.37,17.6,10.11,24.3c6.74,6.71,14.82,10.06,24.25,10.06Z"/>
          <path class="cls-1" d="M638.12,55.78V0h21.75v100.47c-.22,10.37-2.83,19.73-7.83,28.11-5,8.37-11.73,15.06-20.17,20.06-8.45,5-17.82,7.5-28.11,7.5s-19.7-2.52-28.22-7.56c-8.52-5.04-15.3-11.81-20.33-20.33-5.04-8.52-7.56-17.92-7.56-28.22s2.52-19.7,7.56-28.22c5.04-8.52,11.82-15.29,20.33-20.33,8.52-5.04,17.92-7.56,28.22-7.56,6.45,0,12.59,1.03,18.43,3.1,5.84,2.07,11.15,4.99,15.93,8.75ZM603.76,134.39c9.5,0,17.6-3.35,24.3-10.06,6.71-6.7,10.06-14.8,10.06-24.3s-3.35-17.6-10.06-24.3c-6.71-6.7-14.8-10.06-24.3-10.06s-17.6,3.35-24.3,10.06c-6.71,6.71-10.06,14.81-10.06,24.3s3.35,17.6,10.06,24.3c6.7,6.71,14.8,10.06,24.3,10.06Z"/>
          <path class="cls-1" d="M729.31,43.93c10.29,0,19.7,2.52,28.22,7.56,8.52,5.04,15.26,11.76,20.22,20.17,4.97,8.41,7.52,17.83,7.67,28.27v10.44h-1.74v.11h-55.24v-21.75h33.38c-2.46-6.81-6.62-12.36-12.45-16.64-5.84-4.28-12.52-6.42-20.06-6.42-9.42,0-17.51,3.35-24.25,10.06-6.74,6.71-10.11,14.81-10.11,24.3,0,6.6,1.76,12.47,5.27,17.61,3.51,5.15,7.9,9.19,13.16,12.12,5.26,2.94,10.67,4.48,16.26,4.62l-.54,21.75c-14.06-.51-26.68-5.73-37.84-15.66-12.03-11.53-18.05-25.01-18.05-40.45,0-10.29,2.54-19.7,7.61-28.22,5.07-8.52,11.85-15.29,20.33-20.33,8.48-5.04,17.87-7.56,28.16-7.56Z"/>
        </g>
        <path class="cls-1" d="M785.41,145.27h0c0-6.01,4.87-10.87,10.87-10.87h0c6.01,0,10.87,4.87,10.87,10.87h0c0,6.01-4.87,10.87-10.87,10.87h0c-6.01,0-10.87-4.87-10.87-10.87Z"/>
      </g>
    </g>
  </g>
</svg>