<svg width="1399" height="254" viewBox="0 0 1399 254" fill="none" xmlns="http://www.w3.org/2000/svg">
<path d="M136 250.559C135.969 250.566 127.635 252.346 121.983 253.016C116.321 253.688 107 254 107 254V75H136V250.559Z" fill="#155378"/>
<path d="M194 229.668C193.985 229.677 185.85 234.395 180.467 237.082C174.542 240.038 165 244 165 244V75H194V229.668Z" fill="#155378"/>
<path d="M255 172.647C254.989 172.663 248.386 182.088 243 188.351C236.763 195.604 225 207 225 207V75H255V172.647Z" fill="#155378"/>
<path d="M282 21.7215H36.6173C34.3275 22.1401 32.1361 23.0179 30.1819 24.3162C27.3599 26.1912 25.1605 28.857 23.8608 31.976C22.562 35.0941 22.2224 38.5251 22.8847 41.8356C23.547 45.1462 25.1814 48.1872 27.5814 50.5746C29.9823 52.961 33.0407 54.5862 36.3701 55.2447C39.6994 55.9033 43.15 55.5656 46.2857 54.2742C49.4225 52.9827 52.1035 50.7948 53.9891 47.9887C55.5053 45.7327 56.4506 43.1577 56.7644 40.481H79.385C79.0265 47.5987 76.7387 54.5012 72.7431 60.448C68.379 66.9427 62.176 72.0048 54.9185 74.9935C47.661 77.9832 39.6746 78.7652 31.9693 77.2407C24.2649 75.7172 17.1881 71.9555 11.6335 66.4323C6.07888 60.9091 2.2957 53.8723 0.763171 46.2115C-0.76936 38.5498 0.0172602 30.6086 3.02344 23.3921C6.02922 16.1756 11.1201 10.0077 17.6518 5.66832C21.1559 3.34067 24.9898 1.59633 29.0043 0.478266L30.733 0.142672L32.4042 0H275.049L282 21.7215Z" fill="#155378"/>
<path d="M273 62H84V41H273V62Z" fill="#155378"/>
<path d="M501.23 171.953H478.418V82.8244H501.23V171.953ZM616.512 82.8244C627.62 82.8247 636.625 91.6925 636.625 102.631V152.147C636.625 163.085 627.619 171.953 616.512 171.953H515.94V82.8244H616.512ZM671.954 171.953H649.142V82.8244H671.954V171.953ZM787.981 82.8244C799.089 82.8247 808.095 91.6925 808.095 102.631H707.524V117.486H787.981C799.089 117.486 808.095 126.354 808.095 137.292V152.147C808.095 163.085 799.089 171.953 787.981 171.953H707.524C696.417 171.953 687.41 163.085 687.41 152.147H787.981V137.292H707.524C696.417 137.292 687.41 128.424 687.41 117.486V102.631C687.41 91.6924 696.417 82.8246 707.524 82.8244H787.981ZM998.685 102.631H948.399V171.953H928.285V102.631H878V82.8244H998.685V102.631ZM1131.88 102.631H1031.31V117.486H1109.25V137.292H1031.31V152.147H1131.88V171.953H1011.19V82.8244H1131.88V102.631ZM1245.7 82.8244C1256.81 82.8244 1265.81 91.6923 1265.81 102.631H1165.24V152.147H1265.81C1265.81 163.085 1256.81 171.953 1245.7 171.953H1165.24C1154.13 171.953 1145.13 163.085 1145.13 152.147V102.631C1145.13 91.6923 1154.13 82.8244 1165.24 82.8244H1245.7ZM1298.43 117.486H1378.89V82.8244H1399V171.953H1378.89V137.292H1298.43V171.953H1278.32V82.8244H1298.43V117.486ZM465.903 102.63H415.618V171.952H395.504V102.63H345.219V82.8235H465.903V102.63ZM536.055 152.147H616.512V102.631H536.055V152.147Z" fill="#155378"/>
</svg>
