<svg width="475" height="392" viewBox="0 0 475 392" fill="none" xmlns="http://www.w3.org/2000/svg">
  <path d="M76 45H56V73H48V45H28V37H76V45Z" fill="#1976d2" stroke="white" stroke-width="1"/>
  <path d="M90 73H81V37H90V73Z" fill="#1976d2" stroke="white" stroke-width="1"/>
  <path fill-rule="evenodd" clip-rule="evenodd" d="M136 37C140.418 37 144 40.5817 144 45V65C144 69.4183 140.418 73 136 73H96V37H136ZM104 65H136V45H104V65Z" fill="#1976d2" stroke="white" stroke-width="1"/>
  <path d="M158 73H149V37H158V73Z" fill="#1976d2" stroke="white" stroke-width="1"/>
  <path d="M204 37C208.418 37 212 40.5817 212 45H172V51H204C208.418 51 212 54.5817 212 59V65C212 69.4183 208.418 73 204 73H172C167.582 73 164 69.4183 164 65H204V59H172C167.582 59 164 55.4183 164 51V45C164 40.5817 167.582 37 172 37H204Z" fill="#1976d2" stroke="white" stroke-width="1"/>
  <path d="M288 45H268V73H260V45H240V37H288V45Z" fill="#1976d2" stroke="white" stroke-width="1"/>
  <path d="M341 45H301V51H332V59H301V65H341V73H293V37H341V45Z" fill="#1976d2" stroke="white" stroke-width="1"/>
  <path d="M386 37C390.418 37 394 40.5817 394 45H354V65H394C394 69.4183 390.418 73 386 73H354C349.582 73 346 69.4183 346 65V45C346 40.5817 349.582 37 354 37H386Z" fill="#1976d2" stroke="white" stroke-width="1"/>
  <path d="M407 51H439V37H447V73H439V59H407V73H399V37H407V51Z" fill="#1976d2" stroke="white" stroke-width="1"/>
  <path d="M233 351.501C232.968 351.508 224.347 353.318 218.5 354C212.642 354.683 203 355 203 355V173H233V351.501Z" fill="#1976d2" stroke="white" stroke-width="1"/>
  <path d="M292 329.499C291.984 329.508 283.569 334.282 278 337C271.871 339.991 262 344 262 344V173.005H292V329.499Z" fill="#1976d2" stroke="white" stroke-width="1"/>
  <path d="M352 272.5C351.989 272.516 345.386 282.119 340 288.5C333.763 295.889 322 307.5 322 307.5V173.013H352V272.5Z" fill="#1976d2" stroke="white" stroke-width="1"/>
  <path d="M379.5 118H132.377C130.071 118.424 127.864 119.313 125.896 120.628C123.054 122.527 120.839 125.227 119.53 128.386C118.222 131.544 117.88 135.019 118.547 138.372C119.214 141.725 120.86 144.805 123.277 147.223C125.695 149.64 128.775 151.286 132.128 151.953C135.481 152.62 138.956 152.278 142.114 150.97C145.273 149.662 147.973 147.446 149.872 144.604C151.399 142.319 152.351 139.711 152.667 137H175.448C175.087 144.209 172.783 151.2 168.759 157.223C164.364 163.801 158.117 168.928 150.808 171.955C143.499 174.983 135.456 175.775 127.696 174.231C119.937 172.688 112.81 168.878 107.216 163.284C101.622 157.69 97.812 150.563 96.2686 142.804C94.7252 135.044 95.5174 127.001 98.5449 119.692C101.572 112.383 106.699 106.136 113.277 101.741C116.806 99.3835 120.667 97.6168 124.71 96.4844L126.451 96.1445L128.134 96H372.5L379.5 118Z" fill="#1976d2" stroke="white" stroke-width="1"/>
  <path d="M371 160H180V138H371V160Z" fill="#1976d2" stroke="white" stroke-width="1"/>
</svg>